<?xml version="1.0" encoding="utf-8"?>
<!-- Generator: Adobe Illustrator 16.0.0, SVG Export Plug-In . SVG Version: 6.00 Build 0)  -->
<!DOCTYPE svg PUBLIC "-//W3C//DTD SVG 1.1//EN" "http://www.w3.org/Graphics/SVG/1.1/DTD/svg11.dtd">
<svg version="1.1" id="Layer_1" xmlns="http://www.w3.org/2000/svg" xmlns:xlink="http://www.w3.org/1999/xlink" x="0px" y="0px"
	 width="382.099px" height="139.506px" viewBox="0 0 382.099 139.506" enable-background="new 0 0 382.099 139.506"
	 xml:space="preserve">
<g>
	<path fill="#34D9C3" d="M118.213,131.476v-30.6h16.93v2.695h-13.474v10.738h12.481v2.693h-12.481v11.771h13.901v2.701H118.213z
		 M126.438,97.888h-3.071l4.545-5.182h3.496L126.438,97.888z"/>
	<path fill="#34D9C3" d="M155.614,131.476h-3.025l-11.588-30.6h3.832l9.359,25.916l8.893-25.916h3.69L155.614,131.476z"/>
	<path fill="#34D9C3" d="M189.229,131.476l-3.264-9.133h-12.577l-3.451,9.133h-3.645l12.438-30.6h2.837l11.539,30.6H189.229z
		 M179.959,105.226l-5.575,14.518h10.686L179.959,105.226z"/>
	<path fill="#34D9C3" d="M199.906,131.476v-30.6h3.456v27.758h13.994v2.842H199.906z"/>
	<path fill="#34D9C3" d="M234.752,132.277c-8.321,0-11.727-3.926-11.727-12.105v-19.295h3.456v18.828
		c0,7.795,2.647,9.879,8.271,9.879c5.249,0,7.613-2.602,7.613-9.879v-18.828h3.456v19.391
		C245.821,128.402,242.27,132.277,234.752,132.277z"/>
	<path fill="#34D9C3" d="M275.604,131.476l-3.264-9.133h-12.58l-3.456,9.133h-3.638l12.438-30.6h2.835l11.539,30.6H275.604z
		 M266.333,105.226l-5.577,14.518h10.686L266.333,105.226z"/>
	<path fill="#34D9C3" d="M292.903,103.621v27.855h-3.456v-27.855h-9.028v-2.744h21.563v2.744H292.903z"/>
	<path fill="#34D9C3" d="M307.934,131.476v-30.6h3.451v30.6H307.934z"/>
	<path fill="#34D9C3" d="M332.285,132.277c-10.165,0-13.191-6.855-13.191-15.986c0-9.029,3.451-15.934,13.237-15.934
		c9.928,0,12.959,6.762,12.959,15.934C345.29,125.371,341.976,132.277,332.285,132.277z M332.285,103.048
		c-7.285,0-9.599,5.154-9.599,13.242c0,8.09,2.313,13.293,9.599,13.293c7.377,0,9.407-5.439,9.407-13.293
		C341.692,108.158,339.521,103.048,332.285,103.048z"/>
	<path fill="#34D9C3" d="M371.147,131.476l-14.424-26.535v26.535h-3.168v-30.6h4.916l14.333,26.533v-26.533h3.354v30.6H371.147z"/>
	<path fill="#002D5C" d="M127.868,30.96v55.129h-9.592V30.96h-17.921v-7.559h45.433v7.559H127.868z"/>
	<path fill="#002D5C" d="M194.516,86.089V57.505h-26.927v28.584h-9.69V23.402h9.69v26.55h26.927v-26.55h9.69v62.688H194.516z"/>
	<path fill="#002D5C" d="M248.575,87.83c-17.537,0-25.287-8.137-25.287-24.901V23.402h9.69v38.559
		c0,15.019,5.906,18.41,15.597,18.41c9.199,0,14.338-4.744,14.338-18.41V23.402h9.686v39.721
		C272.599,79.794,264.363,87.83,248.575,87.83z"/>
	<path fill="#002D5C" d="M291.686,86.089V23.402h9.686v54.938h27.317v7.75H291.686z"/>
	<path fill="#002D5C" d="M339.151,86.089V23.402h35.942v7.462h-26.257v19.087h24.221v7.455h-24.221v21.226h27.125v7.457H339.151z
		 M355.713,18.582h-8.038l9.296-11.155h9.109L355.713,18.582z"/>
	<path fill="#002D5C" d="M60.703,8.104c-0.18-0.677-1.313-0.677-1.49,0L48.357,48.583c-0.085,0.323,0.046,0.667,0.329,0.849
		c0.28,0.177,0.651,0.159,0.909-0.05l10.362-8.597l10.362,8.597c0.142,0.114,0.315,0.172,0.492,0.172
		c0.146,0,0.291-0.038,0.414-0.122c0.286-0.182,0.42-0.525,0.334-0.849L60.703,8.104z"/>
	<path fill="#002D5C" d="M59.955,51.74c-3.746,0-6.79,3.044-6.79,6.79c0,3.744,3.044,6.788,6.79,6.788
		c3.749,0,6.798-3.044,6.798-6.788C66.753,54.784,63.704,51.74,59.955,51.74z"/>
	<path fill="#34D9C3" d="M107.699,94.324L92.156,78.791c-0.114-0.119-0.301-0.119-0.415,0l-5.009,5.004
		c-0.053,0.057-0.084,0.129-0.084,0.211c0,0.072,0.031,0.148,0.084,0.209l4.986,4.979c-8.634,7.877-19.777,12.209-31.415,12.209
		c-12.472,0-24.197-4.859-33.017-13.676c-8.821-8.822-13.679-20.559-13.679-33.025c0-11.635,4.335-22.775,12.209-31.412l4.984,4.984
		c0.11,0.114,0.306,0.114,0.419,0l5.002-5.004c0.113-0.116,0.113-0.3,0-0.417L20.682,7.313c-0.111-0.111-0.306-0.111-0.417,0
		l-5.004,5.004c-0.114,0.116-0.114,0.303,0,0.415l5.133,5.135C11.069,27.957,5.939,41.024,5.939,54.701
		c0,14.52,5.653,28.17,15.927,38.441c9.261,9.268,21.573,14.848,34.688,15.74v14.705h-8.374c-0.161,0-0.295,0.129-0.295,0.295v7.076
		c0,0.16,0.134,0.297,0.295,0.297h24.421c0.164,0,0.295-0.137,0.295-0.297v-7.076c0-0.166-0.131-0.295-0.295-0.295h-8.375v-14.713
		c12.401-0.879,23.769-5.805,32.916-14.258l5.133,5.133c0.111,0.111,0.309,0.111,0.417,0l5.007-5.008
		C107.812,94.626,107.812,94.441,107.699,94.324z"/>
</g>
</svg>
